<svg width="600" height="600" viewBox="0 0 600 600" fill="none" xmlns="http://www.w3.org/2000/svg">
<path d="M349.409 393.224C355.249 393.52 359.894 398.348 359.894 404.262L359.879 404.83C359.583 410.67 354.754 415.314 348.841 415.314L348.271 415.3C343.689 415.067 339.843 412.043 338.399 407.895L286.623 407.817L271.913 422.987V423.046L271.857 423.045L271.764 423.143L271.661 423.043L259.672 422.914L242.194 440.278L238.188 436.246L257.438 417.122L257.637 417.322L257.639 417.208L269.478 417.334L284.111 402.242L284.112 402.051L337.995 402.13C338.989 397.046 343.466 393.209 348.841 393.209L349.409 393.224ZM482.672 325.013C488.511 325.309 493.156 330.138 493.156 336.051L493.142 336.619C492.846 342.459 488.017 347.103 482.104 347.104L481.534 347.089C477.127 346.865 473.401 344.061 471.838 340.156H448.873L425.622 363.408L425.577 363.363V363.524H419.787L436.849 377.702C438.803 375.956 441.382 374.893 444.209 374.893L444.777 374.907C450.617 375.203 455.262 380.032 455.262 385.945L455.247 386.514C454.951 392.353 450.122 396.998 444.209 396.998L443.64 396.983C437.988 396.697 433.457 392.165 433.171 386.514L433.156 385.945C433.156 384.978 433.281 384.039 433.515 383.145L409.905 363.524H388.945V363.142L388.847 363.254L372.729 348.998H310.29L277.315 381.972L299.291 382.426L313.003 369.535L313.164 369.646L313.165 369.209L347.173 369.259C348.614 364.831 352.774 361.63 357.683 361.63L358.251 361.645C364.091 361.94 368.735 366.769 368.735 372.683L368.721 373.251C368.613 375.383 367.898 377.354 366.75 378.999L381.574 395.121C383.488 393.532 385.948 392.577 388.63 392.577L389.198 392.592C395.038 392.888 399.683 397.716 399.683 403.63L399.668 404.198C399.372 410.038 394.543 414.683 388.63 414.683L388.061 414.668C382.409 414.381 377.878 409.85 377.592 404.198L377.577 403.63C377.577 402.346 377.798 401.113 378.201 399.967L362.334 382.711C360.92 383.368 359.344 383.735 357.683 383.735L357.113 383.721C352.066 383.465 347.916 379.823 346.881 375.021L314.6 374.975L302.688 387.029L302.735 387.208L271.773 387.514L230.019 429.27L225.999 425.251L309.367 342.819V342.683H309.506L317.143 335.132L324.631 334.658L316.606 342.683H329.628L340.569 332.599L346.314 333.009L337.172 342.683H375.051V342.893L375.186 342.74L391.545 357.209H422.89L446.257 333.841L446.419 334.003V333.841H471.271C472.296 328.796 476.756 324.998 482.104 324.998L482.672 325.013ZM302.481 334.07L219.282 417.27L215.263 413.25L295.474 334.064L302.481 334.07ZM348.841 401.209C347.155 401.209 345.788 402.576 345.788 404.262C345.788 405.947 347.155 407.314 348.841 407.314C350.526 407.314 351.893 405.947 351.894 404.262C351.894 402.576 350.527 401.209 348.841 401.209ZM388.63 400.577C386.944 400.577 385.577 401.944 385.577 403.63C385.577 405.316 386.944 406.683 388.63 406.683C390.316 406.683 391.682 405.316 391.683 403.63C391.683 401.944 390.316 400.577 388.63 400.577ZM269.691 330.798C270.801 329.688 272.601 329.688 273.711 330.798C274.82 331.908 274.82 333.707 273.711 334.816L205.387 403.141L201.368 399.121L269.691 330.798ZM267.869 315.976L194.012 390.857L189.992 386.838L267.629 309.202L267.869 315.976ZM444.209 382.893C442.523 382.893 441.156 384.26 441.156 385.945C441.156 387.631 442.523 388.998 444.209 388.998C445.895 388.998 447.262 387.631 447.262 385.945C447.262 384.26 445.894 382.893 444.209 382.893ZM266.369 293.489L181.387 379.496L177.368 375.477L266.618 286.227L266.369 293.489ZM357.683 369.63C355.997 369.63 354.63 370.997 354.63 372.683C354.63 374.368 355.997 375.735 357.683 375.735C359.368 375.735 360.735 374.368 360.735 372.683C360.735 370.997 359.368 369.63 357.683 369.63ZM201.62 191.751C207.46 192.047 212.104 196.876 212.104 202.789L212.09 203.357C211.843 208.226 208.445 212.261 203.895 213.469V246.349L212.736 255.525V303.524L211.473 306.999L211.324 306.967L188.736 330.263V340.788L187.195 343.867L187.302 343.971L167.554 364.337L163.474 360.38L183.052 340.188V328.156H183.254L183.052 327.96L207.052 303.209V257.48L198.221 248.649L198.292 248.578H198.21V213.469C193.66 212.261 190.26 208.227 190.014 203.357L189.999 202.789C189.999 196.685 194.948 191.737 201.052 191.736L201.62 191.751ZM218.673 142.488C224.513 142.784 229.157 147.613 229.157 153.526L229.143 154.095C229.043 156.064 228.425 157.896 227.427 159.461L241.305 173.338L241.157 173.485V225.21H241.156L227.263 240.259V280.846L236.312 271.795C235.096 270.117 234.336 268.086 234.225 265.883L234.21 265.314C234.21 259.21 239.159 254.262 245.263 254.262L245.831 254.276C251.671 254.572 256.315 259.401 256.315 265.314L256.301 265.883C256.005 271.723 251.176 276.367 245.263 276.367L244.693 276.353C243.281 276.281 241.938 275.944 240.714 275.391L240.735 275.412L227.263 288.999V310.473L225.77 314.352L225.85 314.429L197.87 343.285L193.789 339.328L221.578 310.669V238.473L235.473 223.884V175.545L223.241 163.313C221.706 164.121 219.959 164.579 218.104 164.579L217.535 164.564C211.884 164.278 207.353 159.746 207.066 154.095L207.052 153.526C207.052 147.422 212 142.474 218.104 142.474L218.673 142.488ZM185.831 251.119C191.671 251.415 196.315 256.244 196.315 262.157L196.301 262.726C196.054 267.595 192.655 271.63 188.104 272.838V302.997L188.17 303.061L188.104 303.128V303.216H188.02L165.57 326.367L165.826 339.969C165.856 341.538 164.607 342.835 163.038 342.864C161.469 342.894 160.173 341.645 160.144 340.075L159.849 324.434L159.684 324.273L159.843 324.108L159.842 324.054L159.897 324.052L182.421 300.823V272.837C177.87 271.629 174.471 267.595 174.225 262.726L174.21 262.157C174.21 256.053 179.159 251.105 185.263 251.104L185.831 251.119ZM482.104 332.998C480.418 332.998 479.051 334.365 479.051 336.051C479.051 337.737 480.418 339.104 482.104 339.104C483.789 339.103 485.156 337.736 485.156 336.051C485.156 334.365 483.789 332.998 482.104 332.998ZM507.935 275.75C513.774 276.046 518.419 280.875 518.419 286.788L518.404 287.356C518.108 293.196 513.28 297.841 507.366 297.841L506.797 297.826C502.265 297.596 498.457 294.636 496.977 290.559H462.258V284.243H496.611C497.761 279.366 502.138 275.735 507.366 275.735L507.935 275.75ZM507.366 283.735C505.68 283.735 504.314 285.102 504.313 286.788C504.314 288.474 505.68 289.841 507.366 289.841C509.052 289.841 510.419 288.474 510.419 286.788C510.419 285.102 509.052 283.736 507.366 283.735ZM245.263 262.262C243.577 262.262 242.21 263.629 242.21 265.314C242.21 267 243.577 268.367 245.263 268.367C246.948 268.367 248.315 267 248.315 265.314C248.315 263.629 246.948 262.262 245.263 262.262ZM185.263 259.104C183.577 259.105 182.21 260.471 182.21 262.157C182.21 263.843 183.577 265.21 185.263 265.21C186.948 265.21 188.315 263.843 188.315 262.157C188.315 260.471 186.948 259.105 185.263 259.104ZM518.671 230.276C524.511 230.572 529.155 235.401 529.155 241.314L529.141 241.883C528.845 247.723 524.016 252.367 518.103 252.367L517.533 252.353C512.223 252.083 507.903 248.066 507.163 242.894H482.339L472.405 253.04L472.315 252.951V252.999H462.21V246.684H469.79L479.261 237.01V236.578H508.115C509.889 232.844 513.694 230.262 518.103 230.262L518.671 230.276ZM518.103 238.262C516.417 238.262 515.05 239.629 515.05 241.314C515.05 243 516.417 244.367 518.103 244.367C519.788 244.367 521.155 243 521.155 241.314C521.155 239.629 519.788 238.262 518.103 238.262ZM339.936 73.0146C345.775 73.3106 350.42 78.1393 350.42 84.0527L350.405 84.6211C350.159 89.4904 346.76 93.5256 342.209 94.7334V131.074H341.83L341.88 131.122L309.999 164.23V203.104H309.699L309.81 203.211L301.156 212.37H292.946L304.314 199.869V162.052H304.431L304.314 161.939L336.524 128.489V94.7324C331.974 93.5245 328.576 89.4902 328.329 84.6211L328.314 84.0527C328.314 77.9486 333.263 73 339.367 73L339.936 73.0146ZM507.935 182.909C513.774 183.205 518.419 188.034 518.419 193.947L518.404 194.516C518.108 200.355 513.279 205 507.366 205L506.797 204.985C502.156 204.75 498.273 201.65 496.873 197.42H465.875L450.728 212.122H442.48L463.312 191.104L463.472 191.268V191.104H496.684C497.938 186.378 502.245 182.895 507.366 182.895L507.935 182.909ZM302.041 81.2256C307.881 81.5216 312.525 86.3502 312.525 92.2637L312.511 92.832C312.264 97.7012 308.865 101.737 304.314 102.944V129.21L282.209 152.353V172.157L262.631 192.368V194.263H262.334L250.946 208.326V209.758C250.946 210.967 249.966 211.946 248.757 211.946C247.197 211.946 245.953 210.644 246.023 209.086L246.21 204.999L246.315 205.013L256.946 191.885V129.914C252.716 128.514 249.617 124.631 249.382 119.989L249.367 119.421C249.367 113.317 254.316 108.368 260.42 108.368L260.988 108.383C266.828 108.679 271.473 113.507 271.473 119.421L271.458 119.989C271.2 125.081 267.496 129.263 262.631 130.251V184.17L276.525 169.741V150.052H276.548L298.63 127.119V102.943C294.08 101.735 290.681 97.701 290.435 92.832L290.42 92.2637C290.42 86.1595 295.368 81.2109 301.473 81.2109L302.041 81.2256ZM384.777 77.4355C390.617 77.7315 395.262 82.5602 395.262 88.4736L395.247 89.042C394.989 94.1343 391.284 98.3161 386.419 99.3037V115.947H386.366L386.525 116.101L349.156 154.907V162.052H360.391L366.841 155.174V155.104H382.035L393.401 143.288L393.683 124.157L393.784 124.167L419.322 99.2734C418.939 98.2424 418.703 97.1393 418.645 95.9893L418.63 95.4209C418.63 89.3168 423.579 84.3682 429.683 84.3682L430.251 84.3828C436.091 84.6789 440.735 89.5076 440.735 95.4209L440.721 95.9893C440.425 101.829 435.596 106.473 429.683 106.474L429.113 106.459C426.895 106.346 424.85 105.578 423.166 104.346L399.683 127.238V145.704H399.613L384.655 161.491L384.524 161.365V161.421H369.642L363.236 168.249L363.051 168.074V168.368H349.156V170.895L327.051 193.719V211.946H320.735V191.104H320.791L342.938 168.376L343.472 152.578L343.507 152.58L380.735 113.917V98.9668C376.505 97.5672 373.406 93.6833 373.171 89.042L373.156 88.4736C373.156 82.3695 378.105 77.4209 384.209 77.4209L384.777 77.4355ZM490.882 146.909C496.722 147.205 501.366 152.034 501.366 157.947L501.352 158.516C501.056 164.355 496.227 169 490.313 169L489.744 168.985C485.103 168.75 481.22 165.651 479.82 161.421H468.613L433.257 197.686L433.156 197.587V198.052H426.079C424.191 201.442 420.574 203.736 416.419 203.736L415.85 203.722C414.129 203.634 412.514 203.151 411.089 202.365L401.262 211.921H393.612L406.63 197.898L406.723 197.988C405.945 196.57 405.468 194.962 405.381 193.252L405.366 192.684C405.366 186.58 410.315 181.631 416.419 181.631L416.987 181.646C422.512 181.925 426.964 186.262 427.429 191.736H430.236L465.951 155.104L465.998 155.149V155.104H479.631C480.885 150.378 485.192 146.895 490.313 146.895L490.882 146.909ZM286.883 179.751C292.723 180.047 297.367 184.876 297.367 190.789L297.353 191.357C297.057 197.197 292.228 201.842 286.314 201.842L285.745 201.827C283.462 201.711 281.362 200.901 279.65 199.605L268.409 211.43L260.953 211.415L276.167 195.169C275.658 193.99 275.345 192.706 275.276 191.357L275.262 190.789C275.262 184.685 280.21 179.736 286.314 179.736L286.883 179.751ZM464.987 113.436C470.827 113.731 475.472 118.56 475.472 124.474L475.457 125.042C475.161 130.882 470.332 135.526 464.419 135.526L463.85 135.512C461.588 135.397 459.507 134.601 457.805 133.327L423.934 167.199L423.839 167.104H408.856L397.957 178.005L397.881 177.929L393.933 179.491C393.975 179.883 393.998 180.281 393.998 180.684L393.983 181.252C393.687 187.092 388.859 191.736 382.945 191.736L382.376 191.722C380.741 191.639 379.202 191.198 377.83 190.48L358.945 210.684H350.104L373.299 186.081C372.491 184.64 371.996 183 371.907 181.252L371.893 180.684C371.893 174.58 376.841 169.631 382.945 169.631L383.514 169.646C386.955 169.82 389.981 171.569 391.887 174.187L394.948 172.975L406.3 161.624V161.421H421.673L454.262 128.831C453.758 127.658 453.449 126.382 453.381 125.042L453.366 124.474C453.366 118.369 458.315 113.421 464.419 113.421L464.987 113.436ZM201.052 199.736C199.366 199.737 197.999 201.103 197.999 202.789C197.999 204.475 199.366 205.842 201.052 205.842C202.737 205.842 204.104 204.475 204.104 202.789C204.104 201.103 202.738 199.736 201.052 199.736ZM507.366 190.895C505.68 190.895 504.313 192.261 504.313 193.947C504.314 195.633 505.681 197 507.366 197C509.052 197 510.419 195.633 510.419 193.947C510.419 192.262 509.052 190.895 507.366 190.895ZM416.419 189.631C414.733 189.631 413.366 190.998 413.366 192.684C413.366 194.369 414.733 195.736 416.419 195.736C418.105 195.736 419.472 194.369 419.472 192.684C419.472 190.998 418.105 189.631 416.419 189.631ZM286.314 187.736C284.629 187.736 283.262 189.103 283.262 190.789C283.262 192.475 284.629 193.842 286.314 193.842C288 193.842 289.367 192.475 289.367 190.789C289.367 189.103 288 187.736 286.314 187.736ZM382.945 177.631C381.26 177.631 379.893 178.998 379.893 180.684C379.893 182.369 381.26 183.736 382.945 183.736C384.631 183.736 385.998 182.369 385.998 180.684C385.998 178.998 384.631 177.631 382.945 177.631ZM490.313 154.895C488.628 154.895 487.261 156.261 487.261 157.947C487.261 159.633 488.628 161 490.313 161C491.999 161 493.366 159.633 493.366 157.947C493.366 156.261 491.999 154.895 490.313 154.895ZM218.104 150.474C216.419 150.474 215.052 151.841 215.052 153.526C215.052 155.212 216.419 156.579 218.104 156.579C219.79 156.579 221.157 155.212 221.157 153.526C221.157 151.841 219.79 150.474 218.104 150.474ZM464.419 121.421C462.733 121.421 461.366 122.788 461.366 124.474C461.366 126.159 462.733 127.526 464.419 127.526C466.105 127.526 467.472 126.159 467.472 124.474C467.472 122.788 466.105 121.421 464.419 121.421ZM260.42 116.368C258.734 116.368 257.367 117.735 257.367 119.421C257.367 121.107 258.734 122.474 260.42 122.474C262.106 122.474 263.473 121.107 263.473 119.421C263.473 117.735 262.106 116.368 260.42 116.368ZM429.683 92.3682C427.997 92.3682 426.63 93.7351 426.63 95.4209C426.63 97.1067 427.997 98.4736 429.683 98.4736C431.368 98.4734 432.735 97.1065 432.735 95.4209C432.735 93.7353 431.368 92.3684 429.683 92.3682ZM301.473 89.2109C299.787 89.2109 298.42 90.5778 298.42 92.2637C298.42 93.9493 299.787 95.3164 301.473 95.3164C303.158 95.3162 304.525 93.9492 304.525 92.2637C304.525 90.5779 303.158 89.2111 301.473 89.2109ZM384.209 85.4209C382.523 85.4209 381.156 86.7878 381.156 88.4736C381.156 90.1594 382.523 91.5264 384.209 91.5264C385.895 91.5262 387.262 90.1593 387.262 88.4736C387.262 86.7879 385.895 85.421 384.209 85.4209ZM339.367 81C337.681 81 336.314 82.3669 336.314 84.0527C336.315 85.7385 337.681 87.1055 339.367 87.1055C341.053 87.1053 342.42 85.7384 342.42 84.0527C342.42 82.367 341.053 81.0002 339.367 81Z" fill="url(#paint0_linear_29_2)"/>
<rect x="282.587" y="235.946" width="19.5788" height="80.21" fill="#1F2937"/>
<rect x="343.219" y="225.841" width="19.5788" height="90.3152" fill="#1F2937"/>
<rect x="377.955" y="225.841" width="19.5788" height="90.3152" fill="#1F2937"/>
<rect x="429.744" y="225.209" width="19.5788" height="90.3152" fill="#1F2937"/>
<path d="M446.392 305.435L429.744 315.525L381.113 236.039L397.534 225.841L446.392 305.435Z" fill="#1F2937"/>
<rect x="254.167" y="225.841" width="75.789" height="19.5788" fill="#1F2937"/>
<rect x="73.1577" y="422.737" width="23.0034" height="142.307" rx="11.5017" transform="rotate(-45 73.1577 422.737)" fill="#1F2937"/>
<path d="M80.3489 468.784C74.6334 463.068 74.6334 453.801 80.349 448.086V448.086L148.398 516.135V516.135C142.682 521.85 133.416 521.85 127.7 516.135L80.3489 468.784Z" fill="#1F2937"/>
<rect x="95.8945" y="398.106" width="21.521" height="144.562" rx="10.7605" transform="rotate(-45 95.8945 398.106)" fill="#1F2937"/>
<rect x="118.631" y="368.933" width="27.2982" height="153.806" rx="13.6491" transform="rotate(-45 118.631 368.933)" fill="#1F2937"/>
<defs>
<linearGradient id="paint0_linear_29_2" x1="469" y1="140.236" x2="234.215" y2="371.959" gradientUnits="userSpaceOnUse">
<stop stop-color="#FF6800"/>
<stop offset="0.650225" stop-color="#B44FFF"/>
<stop offset="1" stop-color="#FF329B"/>
</linearGradient>
</defs>
</svg>
